<?xml version="1.0" encoding="UTF-8"?>
<svg width="1200pt" height="1200pt" version="1.1" viewBox="0 0 1200 1200" xmlns="http://www.w3.org/2000/svg">
 <g>
  <path d="m600 0c-78.793 0-156.82 15.52-229.61 45.672s-138.94 74.348-194.65 130.07c-55.719 55.715-99.914 121.86-130.07 194.65s-45.672 150.82-45.672 229.61c0 159.13 63.215 311.74 175.74 424.26 112.52 112.52 265.13 175.73 424.27 175.73 159.13 0 311.74-63.215 424.26-175.74 112.52-112.52 175.74-265.13 175.74-424.26 0-159.13-63.215-311.74-175.73-424.27-112.52-112.52-265.13-175.74-424.26-175.74zm0 67.762c69.121 0 137.56 13.766 201.42 40.516 63.859 26.746 121.88 65.953 170.76 115.38s87.645 108.1 114.09 172.67c26.453 64.574 40.066 133.79 40.066 203.68 0 141.16-55.457 276.53-154.16 376.34-98.707 99.816-232.58 155.89-372.18 155.89-69.121 0-137.57-13.766-201.43-40.516-63.855-26.746-121.88-65.949-170.76-115.37-48.875-49.422-87.645-108.1-114.1-172.67-26.449-64.574-40.066-133.79-40.066-203.68 0-69.898 13.613-139.11 40.066-203.68 26.449-64.574 65.219-123.25 114.1-172.68 48.875-49.422 106.9-88.625 170.76-115.38 63.859-26.746 132.3-40.512 201.43-40.512z" fill="#363753"/>
  <path d="m600 479.09c-47.91 0-93.863 19.031-127.75 52.906-33.883 33.875-52.926 79.824-52.941 127.73-0.011719 47.914 19.004 93.871 52.871 127.77 33.867 33.895 79.809 52.949 127.72 52.977 47.914 0.027344 93.875-18.977 127.78-52.832 33.906-33.855 52.973-79.793 53.012-127.71 0.027344-31.734-8.3047-62.918-24.156-90.41-15.852-27.492-38.664-50.324-66.145-66.199s-58.652-24.234-90.391-24.234zm55.168 254.22c-8.3438 10.242-19.723 17.57-32.496 20.934-3.0977 0.83203-3.4023 1.5859-3.25 4.082 0.15234 2.4922 0 7.0273 0 10.504v1.0586 4.457c0.23438 3.2773-0.91797 6.4961-3.1719 8.8828-2.2578 2.3867-5.4102 3.7148-8.6914 3.6641h-17.457c-3.5 0.20703-6.9219-1.1133-9.3711-3.6211-2.4492-2.5078-3.6914-5.957-3.3984-9.4531v-11.41-4.2305l-3.8555-0.67969v-0.003906c-10.945-1.4883-21.613-4.5703-31.664-9.1445-9.8242-4.7617-11.867-9.0664-9.0703-19.875 1.7383-6.3477 3.3242-12.016 5.0625-17.684 1.0586-3.25 3.1758-9.8984 9.9766-9.8984 2.6758 0.1875 5.2695 1.0195 7.5586 2.418 9.8984 5.2695 20.684 8.6758 31.816 10.051 6.5039 0.89844 13.133 0.039063 19.195-2.4961 4.2383-1.4414 7.293-5.1602 7.8867-9.5977 0.58984-4.4375-1.3789-8.8281-5.0938-11.332-3.3945-2.7734-7.1602-5.0625-11.184-6.8047-3.4766-1.5117-7.0273-2.9492-10.578-4.3828-8.375-3.1328-16.484-6.9219-24.262-11.336-21.461-12.848-31.285-29.625-30.23-51.238 1.5117-25.242 15.113-42.699 40.809-51.992 5.668-2.0391 5.668-2.0391 5.7422-7.5586v-3.4023-6.4219c0-10.051 3.7031-13.527 13.754-13.828h8.6914c17.156 0 18.816 3.6289 18.895 20.633 0 6.2734 0 6.2734 6.2734 7.5586v-0.003906c8.6562 1.418 17.094 3.957 25.09 7.5586 3.0781 1.0469 5.6094 3.2812 7.0312 6.207 1.418 2.9258 1.6094 6.2969 0.52734 9.3594l-1.5859 5.5938c-1.3594 4.7617-2.7188 9.5977-4.2305 14.281h-0.003907c-0.72266 3.6758-3.0156 6.8477-6.2695 8.6914-3.7148 1.2148-7.7734 0.74609-11.109-1.2852-10.875-5.2773-22.926-7.6719-34.992-6.9492-2.793 0.019531-5.5625 0.55859-8.1602 1.5859-3.3516 1.1914-5.8242 4.0664-6.5 7.5547-0.24219 3.4297 1.3359 6.7305 4.1562 8.6914 4.6094 3.5078 9.7031 6.332 15.113 8.3906l3.5508 1.4375 0.003906-0.003907c9.1719 3.5859 18.129 7.6953 26.828 12.32 16.055 8.668 27.414 24.043 30.984 41.941 3.0273 16.695-1.4844 33.875-12.32 46.93zm230.42-456.15c-25.039-18.438-56.383-26.168-87.125-21.488-30.742 4.6758-58.363 21.379-76.789 46.426-3.1914 4.3281-4.5312 9.75-3.7227 15.062 0.80859 5.3164 3.6953 10.094 8.0312 13.277l52.898 38.844-19.574 26.676c-37.234-22.527-78.84-36.875-122.05-42.09v-46.477h14.434c9.4805 0 18.574-3.7656 25.277-10.473 6.7031-6.7031 10.469-15.793 10.469-25.273v-6.1992c0-9.4805-3.7656-18.57-10.469-25.273s-15.797-10.469-25.277-10.469h-103.38c-9.4805 0-18.574 3.7656-25.277 10.469s-10.469 15.793-10.469 25.273v6.1992c0 9.4805 3.7656 18.57 10.469 25.273 6.7031 6.707 15.797 10.473 25.277 10.473h14.434v46.176-0.003906c-43.23 5.3086-84.836 19.762-122.05 42.395l-19.348-26.301 52.898-38.844 0.003906 0.003906c4.332-3.1836 7.2227-7.9609 8.0312-13.277 0.80859-5.3164-0.53125-10.734-3.7227-15.062-24.801-33.777-65.734-51.754-107.38-47.168-41.648 4.5898-77.688 31.047-94.539 69.414-16.852 38.363-11.957 82.805 12.844 116.58 3.1836 4.332 7.957 7.2227 13.273 8.0312 5.3164 0.80859 10.734-0.53125 15.062-3.7227l52.898-38.844 19.652 26.98c-54.188 50.203-88.566 118.18-96.887 191.59-8.3203 73.402 9.9688 147.35 51.543 208.41-3.7773 11.336-19.195 52.898-32.043 86.832-4.1211 11.289-2.5078 23.875 4.3281 33.762 6.8359 9.8828 18.043 15.836 30.059 15.965h47.988c10.684-0.003906 20.926-4.2422 28.488-11.789l27.809-27.809h0.003906c45.461 24.871 96.449 37.906 148.27 37.906 51.82 0 102.81-13.035 148.27-37.906l27.809 27.809h0.003906c7.5977 7.582 17.906 11.828 28.641 11.789h47.988c12.102-0.054687 23.41-6.0156 30.293-15.969 6.8828-9.9531 8.4648-22.645 4.2422-33.984-12.848-34.309-28.188-75.57-32.043-86.832 41.578-61.059 59.867-135.01 51.547-208.41-8.3203-73.402-42.699-141.38-96.887-191.59l19.723-26.828 52.898 38.844c4.3008 3.1016 9.6406 4.3984 14.883 3.6055 5.2422-0.78906 9.9648-3.6055 13.156-7.8398 18.516-25.047 26.301-56.434 21.637-87.23-4.6641-30.797-21.398-58.469-46.5-76.91zm-50.707 382.77c0 62.293-24.746 122.04-68.793 166.08-44.051 44.047-103.79 68.793-166.09 68.793s-122.03-24.746-166.08-68.793c-44.047-44.047-68.793-103.79-68.793-166.08 0-62.293 24.746-122.04 68.793-166.08 44.051-44.047 103.79-68.793 166.08-68.793 62.27 0.078124 121.96 24.852 166 68.883 44.031 44.027 68.801 103.72 68.883 165.99z" fill="#b4692d"/>
 </g>
</svg>
