<?xml version="1.0" encoding="UTF-8"?>
<svg width="1200pt" height="1200pt" version="1.1" viewBox="0 0 1200 1200" xmlns="http://www.w3.org/2000/svg">
 <g>
  <path d="m600 0c-78.793 0-156.82 15.52-229.61 45.672s-138.94 74.348-194.65 130.07c-55.719 55.715-99.914 121.86-130.07 194.65s-45.672 150.82-45.672 229.61c0 159.13 63.215 311.74 175.74 424.26 112.52 112.52 265.13 175.73 424.27 175.73 159.13 0 311.74-63.215 424.26-175.74 112.52-112.52 175.74-265.13 175.74-424.26 0-159.13-63.215-311.74-175.73-424.27-112.52-112.52-265.13-175.74-424.26-175.74zm0 67.762c69.121 0 137.56 13.766 201.42 40.516 63.859 26.746 121.88 65.953 170.76 115.38s87.645 108.1 114.09 172.67c26.453 64.574 40.066 133.79 40.066 203.68 0 141.16-55.457 276.53-154.16 376.34-98.707 99.816-232.58 155.89-372.18 155.89-69.121 0-137.57-13.766-201.43-40.516-63.855-26.746-121.88-65.949-170.76-115.37-48.875-49.422-87.645-108.1-114.1-172.67-26.449-64.574-40.066-133.79-40.066-203.68 0-69.898 13.613-139.11 40.066-203.68 26.449-64.574 65.219-123.25 114.1-172.68 48.875-49.422 106.9-88.625 170.76-115.38 63.859-26.746 132.3-40.512 201.43-40.512z" fill="#363753"/>
  <path d="m568.31 380.85c-7.9062 0.37109-14.762 7.9062-14.391 15.824 0.37109 7.9141 7.9023 14.777 15.805 14.406h120.77c7.9023 0 15.094 7.1992 15.094 15.113v113.36c-30.652 5.2891-63.902 16.727-85.621 35.895-17.117 11.062-26.824 32.738-43.637 42.035-8.4648 5.6523-21.199 6.6641-36.559 6.375 3.875-34.109 10.062-68.957 15.332-103.2-98.574 11.762-204.33 16.801-204.03 71.793v32.355c-4.5664 2.6992-8.0195 7.6406-8.0195 12.988 0 5.3477 3.4531 10.293 8.0195 12.988 0.089843 14.152-0.24609 29.121 0.23438 42.98 15.199-15.832 36.418-25.742 59.91-25.742 35.133 0 65.465 22.113 77.602 53.137h141.05c0-62.426 51.105-113.59 113.45-113.59 19.109 0 37.223 4.7617 53.07 13.227 0-12.883-0.015625-22.176 0-35.422 11.863 6.0273 24.344 14.047 32.078 22.434 3.5469 7.0547 13.168 10.41 20.285 6.8477 7.4922-3.75 10.559-14.371 6.1328-21.492-29.852-37.793-97.59-53.922-141.76-53.375v-113.59c-0.03125-7.4609 6.2578-14.41 13.68-15.113 31.074 0.1875 53.641 0 84.441 0 7.9766 0.11328 15.312-7.1289 15.312-15.113s-7.3359-15.227-15.312-15.113c-82.633 0-167.79 0-242.95 0.003907zm29.484 60.457-22.406 144.06c5.0352-5.1562 9.125-9.6328 15.094-15.352 19.035-18.23 57.457-37.457 84.914-43.219v-85.488zm145.53 0v83.129h35.617l-11.32-83.129zm-332.11 143.59c0 22.672-15.094 26.449-37.738 26.449 0-18.895 0-26.449 7.5469-34.008 11.055-7.457 24.391 1.625 30.191 7.5586zm332.11 37.785c-54.191 0-98.121 43.984-98.121 98.242s43.93 98.242 98.121 98.242 98.121-43.984 98.121-98.242-43.93-98.242-98.121-98.242zm-332.11 60.457c-37.516 0-67.93 30.449-67.93 68.012s30.414 68.012 67.93 68.012 67.93-30.449 67.93-68.012-30.414-68.012-67.93-68.012zm332.11 22.672c8.3359 0 15.094 6.7656 15.094 15.113s-6.7578 15.113-15.094 15.113-15.094-6.7656-15.094-15.113 6.7578-15.113 15.094-15.113zm-332.11 30.227c8.3359 0 15.094 6.7656 15.094 15.113 0 8.3477-6.7578 15.113-15.094 15.113-8.3359 0-15.094-6.7656-15.094-15.113 0-8.3477 6.7578-15.113 15.094-15.113z" fill="#b4692d"/>
 </g>
</svg>
