<?xml version="1.0" encoding="UTF-8"?>
<svg width="1200pt" height="1200pt" version="1.1" viewBox="0 0 1200 1200" xmlns="http://www.w3.org/2000/svg">
 <g>
  <path d="m600 0c-78.793 0-156.82 15.52-229.61 45.672s-138.94 74.348-194.65 130.07c-55.719 55.715-99.914 121.86-130.07 194.65s-45.672 150.82-45.672 229.61c0 159.13 63.215 311.74 175.74 424.26 112.52 112.52 265.13 175.73 424.27 175.73 159.13 0 311.74-63.215 424.26-175.74 112.52-112.52 175.74-265.13 175.74-424.26 0-159.13-63.215-311.74-175.73-424.27-112.52-112.52-265.13-175.74-424.26-175.74zm0 67.762c69.121 0 137.56 13.766 201.42 40.516 63.859 26.746 121.88 65.953 170.76 115.38s87.645 108.1 114.09 172.67c26.453 64.574 40.066 133.79 40.066 203.68 0 141.16-55.457 276.53-154.16 376.34-98.707 99.816-232.58 155.89-372.18 155.89-69.121 0-137.57-13.766-201.43-40.516-63.855-26.746-121.88-65.949-170.76-115.37-48.875-49.422-87.645-108.1-114.1-172.67-26.449-64.574-40.066-133.79-40.066-203.68 0-69.898 13.613-139.11 40.066-203.68 26.449-64.574 65.219-123.25 114.1-172.68 48.875-49.422 106.9-88.625 170.76-115.38 63.859-26.746 132.3-40.512 201.43-40.512z" fill="#363753"/>
  <path d="m622.79 770.7c-11.949 0.03125-23.395 4.7969-31.836 13.254-8.4375 8.4609-13.176 19.922-13.176 31.867v114.02h90.242v-114.02c0-11.984-4.7695-23.48-13.254-31.945-8.4883-8.4648-19.992-13.203-31.977-13.176z" fill="#b4692d"/>
  <path d="m355.51 303.72 4.7773-6v-0.003906c1.0859-1.2852 1.6055-2.957 1.4375-4.6328-0.16797-1.6758-1.0078-3.2109-2.3281-4.2578l-20.891-17.559c-2.6875-1.7656-6.2695-1.2422-8.3359 1.2227l-69.906 88.02c-2.0859 2.6758-1.6406 6.5352 1.0039 8.668l20.895 17.781h-0.003906c2.6484 1.9375 6.3594 1.3945 8.3359-1.2227l4.668-6 60.348-75.574v-0.44141z" fill="#b4692d"/>
  <path d="m570 379.73c-21.996 7.3008-42.457 18.605-60.348 33.34l31.008 24.781c6.8945-20.699 16.781-40.281 29.34-58.121z" fill="#b4692d"/>
  <path d="m732.59 649.79h101.69c-3.668-117.25-64.57-238.71-164.04-270.39 15.883 22.777 27.723 48.113 35.008 74.906 17.906 63.625 27.105 129.39 27.34 195.48z" fill="#b4692d"/>
  <path d="m391.4 749.59h78.016v64.793h-78.016z" fill="#b4692d"/>
  <path d="m488.09 559.88c4.3086-0.53906 8.5781-1.3555 12.781-2.4453l-62.57-49.898c-20.52 44.676-31.641 93.098-32.672 142.25h101.69c0-24.004 1.668-48.121 4.2227-72.238-6.832 2.0469-13.82 3.5352-20.895 4.4453h-1.7773c-2.9492 0.16406-5.8398-0.85156-8.0391-2.8203-2.1953-1.9688-3.5234-4.7344-3.6875-7.6797-0.33594-6.1367 4.3672-11.387 10.504-11.727z" fill="#b4692d"/>
  <path d="m895.95 672.02h-551.56c-11.848 0.17578-23.156 5.0078-31.473 13.449-8.3203 8.4453-12.98 19.82-12.98 31.672v212.71h255.61v-114.02c0-24.059 12.836-46.293 33.676-58.324 20.836-12.031 46.508-12.031 67.348 0 20.836 12.031 33.672 34.266 33.672 58.324v114.02h250.83v-212.71c0-11.965-4.7539-23.441-13.215-31.906-8.4648-8.4609-19.941-13.215-31.906-13.215zm-404.31 153.37c0 2.9453-1.168 5.7734-3.2539 7.8594-2.0859 2.082-4.9102 3.2539-7.8594 3.2539h-100.02c-6.1367 0-11.113-4.9766-11.113-11.113v-86.906c0-6.1406 4.9766-11.113 11.113-11.113h100.02c2.9492 0 5.7734 1.168 7.8594 3.2539 2.0859 2.082 3.2539 4.9102 3.2539 7.8594zm378.97 0c0 2.9453-1.1719 5.7734-3.2539 7.8594-2.0859 2.082-4.9102 3.2539-7.8594 3.2539h-100.02c-6.1367 0-11.113-4.9766-11.113-11.113v-86.906c0-6.1406 4.9766-11.113 11.113-11.113h100.02c2.9492 0 5.7734 1.168 7.8594 3.2539 2.082 2.082 3.2539 4.9102 3.2539 7.8594z" fill="#b4692d"/>
  <path d="m574.22 464.97c0.14844-4.3789-0.039062-8.7617-0.55469-13.113-0.34375-2.9336 0.49219-5.8828 2.3281-8.1992 1.8359-2.3125 4.5156-3.8008 7.4492-4.1367 2.9336-0.34375 5.8828 0.49609 8.1992 2.3281 2.3164 1.8359 3.8047 4.5156 4.1367 7.4531 2.6367 23.535-1.7266 47.324-12.539 68.395-10.812 21.07-27.594 38.488-48.25 50.074-3.2539 27.223-5.0703 54.602-5.4453 82.016h180.93c-2-149.36-43.344-277.84-90.465-277.84-22.227 0-43.785 29.449-60.902 81.129z" fill="#b4692d"/>
  <path d="m770.37 749.59h78.016v64.793h-78.016z" fill="#b4692d"/>
  <path d="m439.3 479.87c1.3828 0.73437 2.5977 1.7578 3.5586 3l81.352 65.012h-0.003907c11.012-6.1367 20.684-14.41 28.453-24.336 7.8828-9.8867 13.77-21.211 17.336-33.344l-204.27-163.37-45.789 57.57z" fill="#b4692d"/>
 </g>
</svg>
