<?xml version="1.0" encoding="UTF-8"?>
<svg width="1200pt" height="1200pt" version="1.1" viewBox="0 0 1200 1200" xmlns="http://www.w3.org/2000/svg">
 <defs>
  <clipPath id="a">
   <path d="m222.14 222.14h755.71v755.71h-755.71z"/>
  </clipPath>
 </defs>
 <path d="m600 0c-78.793 0-156.82 15.52-229.61 45.672s-138.94 74.348-194.65 130.07c-55.719 55.715-99.914 121.86-130.07 194.65s-45.672 150.82-45.672 229.61c0 159.13 63.215 311.74 175.74 424.26 112.52 112.52 265.13 175.73 424.27 175.73 159.13 0 311.74-63.215 424.26-175.74 112.52-112.52 175.74-265.13 175.74-424.26 0-159.13-63.215-311.74-175.73-424.27-112.52-112.52-265.13-175.74-424.26-175.74zm0 67.762c69.121 0 137.56 13.766 201.42 40.516 63.859 26.746 121.88 65.953 170.76 115.38s87.645 108.1 114.09 172.67c26.453 64.574 40.066 133.79 40.066 203.68 0 141.16-55.457 276.53-154.16 376.34-98.707 99.816-232.58 155.89-372.18 155.89-69.121 0-137.57-13.766-201.43-40.516-63.855-26.746-121.88-65.949-170.76-115.37-48.875-49.422-87.645-108.1-114.1-172.67-26.449-64.574-40.066-133.79-40.066-203.68 0-69.898 13.613-139.11 40.066-203.68 26.449-64.574 65.219-123.25 114.1-172.68 48.875-49.422 106.9-88.625 170.76-115.38 63.859-26.746 132.3-40.512 201.43-40.512z" fill="#363753"/>
 <g clip-path="url(#a)">
  <path d="m439.34 977.86-47.914-47.914c25.398-25.398 18.184-65.641 4.918-110.7 24.871 7.7852 50.465 16 75.883 22.211 12.352 45.945-5.8711 109.38-32.887 136.4zm288.3-618.7c25.453 6.4219 50.656 14.781 74.996 22.703-13.805-44.961-21.195-84.688 5.9258-111.81l-47.91-47.914c-48.879 48.879-34.977 126.54-33.012 137.02zm-239.79 252.27 100.43 78.543c-1.5508-16.121-5.9336-33.547-11.359-51.602 24.914 8.0547 50.34 16.641 75.23 23.148 2.0781 10.762 13.352 90.188-33.32 136.84-54.125 54.133-134.39 33.918-149.18 31.031-51.699-10.09-150.36-60.48-199.61-20.812l-47.906-47.914c27.016-27.016 62.973-42.855 105.79-36.699 39.758 5.7266 94.246 20.715 120.04 28.074 20.992 5.9922 41.422 11.141 59.98 13.254l-73.938-98.613c-1.7148 21.297 3.4688 46.848 10.73 73.742-25.551-7.4648-51.496-15.516-76.441-21.824-1.8984-10.715-18.387-85.707 33.355-137.45 52.438-52.438 134.16-35.895 148.66-30.758 52.727 18.68 112.93 34.625 155.04 34.066l-93.18-69.867c1.8516 14.91 5.8555 30.871 10.746 47.285-25.059-8.0703-50.488-16.695-75.074-23.254-2.0117-10.672-12.598-91.949 33.328-136.97 62.414-56.801 134.24-31.59 148.96-30.637 48.742 3.1523 153.18 69.18 199.82 20.426l47.914 47.914c-45.684 35.586-86.906 59.141-224.89 7.6875-23.441-7.5117-45.805-13.93-66.043-15.453l80.922 103.5c3.293-22.34-2.6758-48.379-11.184-76.25 24.387 7.957 49.523 16.398 74.734 22.898 12.281 64.031-6.0156 110.11-33.031 137.12-60.578 60.578-145.32 34.5-225.04 7.8281-30.855-10.324-60.547-18.102-85.488-15.25zm276.51-62.484-91.926-117.56c-14.91 0.85547-28.355 5.2617-39.848 14.984l121.04 121.04c4.8125-5.6875 8.3242-11.871 10.738-18.461zm-41.957 34.195c9.1758-1.4219 16.941-4.0352 22.922-8.0391l-120.69-120.69c-10.113 12.445-13.816 27.91-13.566 45.258zm-199.58 183.18c17.82 0.28906 33.266-3.2656 44.91-12.992l-121.08-121.07c-4.6562 5.5781-7.8906 12.023-9.9688 19.18zm-49.387-151.83c-6.7266 2.1836-12.977 5.4258-18.66 9.9219l120.8 120.8c9.0469-11.465 12.879-25.188 13.277-40.461z" fill="#b4692d"/>
 </g>
</svg>
