<?xml version="1.0" encoding="UTF-8"?>
<svg width="1200pt" height="1200pt" version="1.1" viewBox="0 0 1200 1200" xmlns="http://www.w3.org/2000/svg">
 <g>
  <path d="m600 0c-78.793 0-156.82 15.52-229.61 45.672s-138.94 74.348-194.65 130.07c-55.719 55.715-99.914 121.86-130.07 194.65s-45.672 150.82-45.672 229.61c0 159.13 63.215 311.74 175.74 424.26 112.52 112.52 265.13 175.73 424.27 175.73 159.13 0 311.74-63.215 424.26-175.74 112.52-112.52 175.74-265.13 175.74-424.26 0-159.13-63.215-311.74-175.73-424.27-112.52-112.52-265.13-175.74-424.26-175.74zm0 67.762c69.121 0 137.56 13.766 201.42 40.516 63.859 26.746 121.88 65.953 170.76 115.38s87.645 108.1 114.09 172.67c26.453 64.574 40.066 133.79 40.066 203.68 0 141.16-55.457 276.53-154.16 376.34-98.707 99.816-232.58 155.89-372.18 155.89-69.121 0-137.57-13.766-201.43-40.516-63.855-26.746-121.88-65.949-170.76-115.37-48.875-49.422-87.645-108.1-114.1-172.67-26.449-64.574-40.066-133.79-40.066-203.68 0-69.898 13.613-139.11 40.066-203.68 26.449-64.574 65.219-123.25 114.1-172.68 48.875-49.422 106.9-88.625 170.76-115.38 63.859-26.746 132.3-40.512 201.43-40.512z" fill="#363753"/>
  <path d="m282.42 703.85c-59.016 59.008-58.898 154.8-0.007813 213.7 59.016 59.016 154.75 58.969 213.72 0.011719l409.73-409.68 26.785 26.785c4.8125 4.8125 12.828 4.8516 17.746-0.066407 4.7734-4.7734 4.9492-12.863 0.066406-17.746l-267.32-267.32c-4.8125-4.8125-12.828-4.8516-17.746 0.066407-4.7773 4.7734-4.9492 12.863-0.066406 17.746l26.82 26.82zm470.62-78.781-356.21 0.003906 313.13-313.09 178.09 178.09zm-52.277-75.445c13.914 0 25.191-11.277 25.191-25.191 0-13.91-11.277-25.191-25.191-25.191-13.91 0-25.188 11.281-25.188 25.191 0 13.914 11.277 25.191 25.188 25.191zm-125.95 25.191c13.91 0 25.188-11.281 25.188-25.191 0-13.914-11.277-25.191-25.188-25.191-13.914 0-25.191 11.277-25.191 25.191 0 13.91 11.277 25.191 25.191 25.191z" fill="#b4692d" fill-rule="evenodd"/>
 </g>
</svg>
