<?xml version="1.0" encoding="UTF-8"?>
<svg width="1200pt" height="1200pt" version="1.1" viewBox="0 0 1200 1200" xmlns="http://www.w3.org/2000/svg">
 <defs>
  <clipPath id="a">
   <path d="m222.14 300h755.71v600h-755.71z"/>
  </clipPath>
 </defs>
 <path d="m600 0c-78.793 0-156.82 15.52-229.61 45.672s-138.94 74.348-194.65 130.07c-55.719 55.715-99.914 121.86-130.07 194.65s-45.672 150.82-45.672 229.61c0 159.13 63.215 311.74 175.74 424.26 112.52 112.52 265.13 175.73 424.27 175.73 159.13 0 311.74-63.215 424.26-175.74 112.52-112.52 175.74-265.13 175.74-424.26 0-159.13-63.215-311.74-175.73-424.27-112.52-112.52-265.13-175.74-424.26-175.74zm0 67.762c69.121 0 137.56 13.766 201.42 40.516 63.859 26.746 121.88 65.953 170.76 115.38s87.645 108.1 114.09 172.67c26.453 64.574 40.066 133.79 40.066 203.68 0 141.16-55.457 276.53-154.16 376.34-98.707 99.816-232.58 155.89-372.18 155.89-69.121 0-137.57-13.766-201.43-40.516-63.855-26.746-121.88-65.949-170.76-115.37-48.875-49.422-87.645-108.1-114.1-172.67-26.449-64.574-40.066-133.79-40.066-203.68 0-69.898 13.613-139.11 40.066-203.68 26.449-64.574 65.219-123.25 114.1-172.68 48.875-49.422 106.9-88.625 170.76-115.38 63.859-26.746 132.3-40.512 201.43-40.512z" fill="#363753"/>
 <g clip-path="url(#a)">
  <path d="m710.21 537.03h-220.42c-8.6914 0-15.742 7.0391-15.742 15.742v299.14c0 8.707 7.0547 15.742 15.742 15.742h15.742c-8.6914 0-15.742 7.0391-15.742 15.742 0 8.707 7.0547 15.742 15.742 15.742h31.488c8.6914 0 15.742-7.0391 15.742-15.742 0-8.707-7.0547-15.742-15.742-15.742h125.95c-8.6914 0-15.742 7.0391-15.742 15.742 0 8.707 7.0547 15.742 15.742 15.742h31.488c8.6914 0 15.742-7.0391 15.742-15.742 0-8.707-7.0547-15.742-15.742-15.742h15.742c8.6914 0 15.742-7.0391 15.742-15.742l0.003906-299.14c0-8.707-7.0508-15.742-15.742-15.742zm-15.746 299.14h-188.93v-62.977h188.93zm0-94.465h-188.93v-78.719h188.93zm0-110.21h-188.93v-62.977h188.93zm-42.664-20.309c-2.8516-2.9922-4.5664-7.0859-4.5664-11.18 0-4.2656 1.7148-8.2031 4.5664-11.18 5.9844-5.8242 16.531-5.8242 22.355 0 2.8477 2.9805 4.5664 6.9141 4.5664 11.18 0 4.0938-1.7148 8.1875-4.5664 11.18-2.9922 2.8516-7.0859 4.5664-11.18 4.5664s-8.1875-1.7148-11.176-4.5664zm0 110.21c-2.8516-2.9883-4.5664-7.082-4.5664-11.176s1.7148-8.2031 4.5664-11.18c5.8242-5.8242 16.375-5.8242 22.355 0 2.8477 2.9766 4.5664 7.0859 4.5664 11.18s-1.7148 8.1875-4.5664 11.18c-2.9922 2.8477-7.0859 4.5625-11.18 4.5625s-8.1875-1.7148-11.176-4.5664zm0 94.465c-2.8516-2.9922-4.5664-7.082-4.5664-11.176 0-4.2656 1.7148-8.2031 4.5664-11.18 5.8242-5.8242 16.375-5.8242 22.355 0 2.8477 2.9766 4.5664 6.9102 4.5664 11.18 0 4.0938-1.7148 8.1875-4.5664 11.18-2.9922 2.8477-7.0859 4.5625-11.18 4.5625s-8.1875-1.7148-11.176-4.5664zm326.06-121.39c0 78.137-63.574 141.7-141.7 141.7h-78.719l-0.003906-283.39c0-26.039-21.191-47.23-47.23-47.23h-220.42c-26.039 0-47.23 21.191-47.23 47.23v283.39h-31.488c-104.18 0-188.93-84.75-188.93-188.93 0-99.141 76.754-180.7 173.97-188.35 10.203-98.039 118.73-158.02 219.63-158.02 130.22 0 236.16 113.01 236.16 251.91v0.88281c70.754 7.8555 125.95 67.996 125.95 140.81z" fill="#b4692d"/>
 </g>
</svg>
