<?xml version="1.0" encoding="UTF-8"?>
<svg width="1200pt" height="1200pt" version="1.1" viewBox="0 0 1200 1200" xmlns="http://www.w3.org/2000/svg">
 <defs>
  <clipPath id="b">
   <path d="m445 222.14h300v116.86h-300z"/>
  </clipPath>
  <clipPath id="a">
   <path d="m324 404h553v573.86h-553z"/>
  </clipPath>
 </defs>
 <path d="m600 0c-78.793 0-156.82 15.52-229.61 45.672s-138.94 74.348-194.65 130.07c-55.719 55.715-99.914 121.86-130.07 194.65s-45.672 150.82-45.672 229.61c0 159.13 63.215 311.74 175.74 424.26 112.52 112.52 265.13 175.73 424.27 175.73 159.13 0 311.74-63.215 424.26-175.74 112.52-112.52 175.74-265.13 175.74-424.26 0-159.13-63.215-311.74-175.73-424.27-112.52-112.52-265.13-175.74-424.26-175.74zm0 67.762c69.121 0 137.56 13.766 201.42 40.516 63.859 26.746 121.88 65.953 170.76 115.38s87.645 108.1 114.09 172.67c26.453 64.574 40.066 133.79 40.066 203.68 0 141.16-55.457 276.53-154.16 376.34-98.707 99.816-232.58 155.89-372.18 155.89-69.121 0-137.57-13.766-201.43-40.516-63.855-26.746-121.88-65.949-170.76-115.37-48.875-49.422-87.645-108.1-114.1-172.67-26.449-64.574-40.066-133.79-40.066-203.68 0-69.898 13.613-139.11 40.066-203.68 26.449-64.574 65.219-123.25 114.1-172.68 48.875-49.422 106.9-88.625 170.76-115.38 63.859-26.746 132.3-40.512 201.43-40.512z" fill="#363753"/>
 <g clip-path="url(#b)">
  <path d="m661.83 338.94c6.8711-10.305 17.176-17.176 27.48-24.047 17.176-10.305 41.223-44.656 54.961-61.832-13.742-24.047-68.703-27.48-89.312-13.742-37.785 20.609-37.785-13.742-68.703 13.742-24.047 17.176-20.609-13.742-51.527-24.047-24.047-10.305-75.57-10.305-89.312 13.742 13.742 17.176 37.785 51.527 54.961 61.832 10.305 6.8711 27.48 20.609 37.785 34.352z" fill="#b4692d" fill-rule="evenodd"/>
 </g>
 <path d="m644.66 380.16c0-6.8711 0-10.305 6.8711-20.609h-99.617c3.4336 10.305 6.8711 13.742 6.8711 20.609z" fill="#b4692d" fill-rule="evenodd"/>
 <g clip-path="url(#a)">
  <path d="m600 977.86c264.5-3.4336 302.29-168.32 264.5-302.29-30.914-116.79-103.05-209.54-209.54-271.37h-106.49c-109.92 61.832-182.06 154.58-212.97 271.37-34.352 133.97 3.4336 298.85 264.5 302.29zm-6.8711-82.441v-27.48c-37.785-3.4336-68.703-17.176-99.617-44.656l30.914-34.352c20.609 20.609 44.656 30.914 68.703 34.352v-75.57c-144.27-34.352-92.746-154.58 0-158.01v-20.609h24.047v20.609c30.914 0 58.395 10.305 82.441 27.48l-24.047 37.785c-20.609-13.742-37.785-20.609-58.395-24.047v75.57c24.047 0 89.312 20.609 89.312 82.441 0 48.09-41.223 75.57-89.312 79.008v27.48z" fill="#b4692d" fill-rule="evenodd"/>
 </g>
 <path d="m593.13 630.92c-41.223 3.4336-65.266 48.09 0 68.703z" fill="#b4692d" fill-rule="evenodd"/>
 <path d="m617.18 826.71c44.656-6.8711 68.703-51.527 0-72.137z" fill="#b4692d" fill-rule="evenodd"/>
</svg>
