<?xml version="1.0" encoding="UTF-8"?>
<svg width="1200pt" height="1200pt" version="1.1" viewBox="0 0 1200 1200" xmlns="http://www.w3.org/2000/svg">
 <g>
  <path d="m600 0c-78.793 0-156.82 15.52-229.61 45.672s-138.94 74.348-194.65 130.07c-55.719 55.715-99.914 121.86-130.07 194.65s-45.672 150.82-45.672 229.61c0 159.13 63.215 311.74 175.74 424.26 112.52 112.52 265.13 175.73 424.27 175.73 159.13 0 311.74-63.215 424.26-175.74 112.52-112.52 175.74-265.13 175.74-424.26 0-159.13-63.215-311.74-175.73-424.27-112.52-112.52-265.13-175.74-424.26-175.74zm0 67.762c69.121 0 137.56 13.766 201.42 40.516 63.859 26.746 121.88 65.953 170.76 115.38s87.645 108.1 114.09 172.67c26.453 64.574 40.066 133.79 40.066 203.68 0 141.16-55.457 276.53-154.16 376.34-98.707 99.816-232.58 155.89-372.18 155.89-69.121 0-137.57-13.766-201.43-40.516-63.855-26.746-121.88-65.949-170.76-115.37-48.875-49.422-87.645-108.1-114.1-172.67-26.449-64.574-40.066-133.79-40.066-203.68 0-69.898 13.613-139.11 40.066-203.68 26.449-64.574 65.219-123.25 114.1-172.68 48.875-49.422 106.9-88.625 170.76-115.38 63.859-26.746 132.3-40.512 201.43-40.512z" fill="#363753"/>
  <path d="m830.5 680.11c9.0703 0 16.625-7.5586 16.625-16.625v-67.258c0-9.0703-7.5586-16.625-16.625-16.625h-29.473c-18.137-89.176-93.707-157.19-185.91-163.99v-49.879h80.863c9.0703 0 16.625-7.5586 16.625-16.625l-0.003907-71.793c0-9.0703-7.5586-16.625-16.625-16.625h-80.105v-3.0234c0-9.0703-7.5586-16.625-16.625-16.625-9.0703 0-16.625 7.5586-16.625 16.625v157.95c-92.195 7.5586-167.77 75.57-185.91 163.99h-27.961c-9.0703 0-16.625 7.5586-16.625 16.625v67.258c0 9.0703 7.5586 16.625 16.625 16.625h24.938v179.11h-24.938c-9.0703 0-16.625 7.5586-16.625 16.625v67.258c0 9.0703 7.5586 16.625 16.625 16.625h461.74c9.0703 0 16.625-7.5586 16.625-16.625v-67.258c0-9.0703-7.5586-16.625-16.625-16.625h-24.938l-0.003906-179.11zm-150.39-386.92v39.297h-64.234v-39.297zm-80.859 154.16c81.617 0 149.63 56.68 168.52 132.25h-337.05c18.891-75.57 86.906-132.25 168.52-132.25zm-213.87 164.75h429.25v34.762h-429.25zm269.04 246.36v-178.35h43.074v179.11h-43.074zm-108.82-178.35v179.11h-43.074v-179.11zm33.25 0h43.074v179.11h-43.074zm-151.9 0h43.074v179.11h-43.074zm387.68 246.36h-429.25v-34.762h429.25zm-41.566-68.012h-43.074v-178.35h43.074z" fill="#b4692d"/>
 </g>
</svg>
