<?xml version="1.0" encoding="UTF-8"?>
<svg width="1200pt" height="1200pt" version="1.1" viewBox="0 0 1200 1200" xmlns="http://www.w3.org/2000/svg">
 <g>
  <path d="m600 0c-78.793 0-156.82 15.52-229.61 45.672s-138.94 74.348-194.65 130.07c-55.719 55.715-99.914 121.86-130.07 194.65s-45.672 150.82-45.672 229.61c0 159.13 63.215 311.74 175.74 424.26 112.52 112.52 265.13 175.73 424.27 175.73 159.13 0 311.74-63.215 424.26-175.74 112.52-112.52 175.74-265.13 175.74-424.26 0-159.13-63.215-311.74-175.73-424.27-112.52-112.52-265.13-175.74-424.26-175.74zm0 67.762c69.121 0 137.56 13.766 201.42 40.516 63.859 26.746 121.88 65.953 170.76 115.38s87.645 108.1 114.09 172.67c26.453 64.574 40.066 133.79 40.066 203.68 0 141.16-55.457 276.53-154.16 376.34-98.707 99.816-232.58 155.89-372.18 155.89-69.121 0-137.57-13.766-201.43-40.516-63.855-26.746-121.88-65.949-170.76-115.37-48.875-49.422-87.645-108.1-114.1-172.67-26.449-64.574-40.066-133.79-40.066-203.68 0-69.898 13.613-139.11 40.066-203.68 26.449-64.574 65.219-123.25 114.1-172.68 48.875-49.422 106.9-88.625 170.76-115.38 63.859-26.746 132.3-40.512 201.43-40.512z" fill="#363753"/>
  <path d="m948.11 488.44c0-46.891-18.289-90.98-51.473-124.12l-0.007813-0.007812c-33.16-33.188-77.23-51.473-124.1-51.473-46.883 0-90.996 18.289-124.23 51.488l-48.359 48.578-43.598-43.77c-34.316-34.438-77.527-54.375-121.68-56.141-2.4727-0.097656-4.9336-0.14453-7.3828-0.14453-46.938 0-90.754 18.113-124.07 51.457-68.43 68.438-68.43 179.84 0 248.35l258.98 258.89c20.879 20.859 54.805 20.836 75.641 0l258.79-258.88c33.188-33.215 51.477-77.316 51.477-124.22zm-215.33 123.06h-53.906l-77.711 138.02-18.902-222.77-47.715 84.746h-67.324v-22.949h53.898l77.727-138.01 18.902 222.75 47.699-84.738h67.336z" fill="#b4692d"/>
 </g>
</svg>
