<?xml version="1.0" encoding="UTF-8"?>
<svg width="1200pt" height="1200pt" version="1.1" viewBox="0 0 1200 1200" xmlns="http://www.w3.org/2000/svg">
 <defs>
  <clipPath id="a">
   <path d="m222.14 227h755.71v746h-755.71z"/>
  </clipPath>
 </defs>
 <path d="m600 0c-78.793 0-156.82 15.52-229.61 45.672s-138.94 74.348-194.65 130.07c-55.719 55.715-99.914 121.86-130.07 194.65s-45.672 150.82-45.672 229.61c0 159.13 63.215 311.74 175.74 424.26 112.52 112.52 265.13 175.73 424.27 175.73 159.13 0 311.74-63.215 424.26-175.74 112.52-112.52 175.74-265.13 175.74-424.26 0-159.13-63.215-311.74-175.73-424.27-112.52-112.52-265.13-175.74-424.26-175.74zm0 67.762c69.121 0 137.56 13.766 201.42 40.516 63.859 26.746 121.88 65.953 170.76 115.38s87.645 108.1 114.09 172.67c26.453 64.574 40.066 133.79 40.066 203.68 0 141.16-55.457 276.53-154.16 376.34-98.707 99.816-232.58 155.89-372.18 155.89-69.121 0-137.57-13.766-201.43-40.516-63.855-26.746-121.88-65.949-170.76-115.37-48.875-49.422-87.645-108.1-114.1-172.67-26.449-64.574-40.066-133.79-40.066-203.68 0-69.898 13.613-139.11 40.066-203.68 26.449-64.574 65.219-123.25 114.1-172.68 48.875-49.422 106.9-88.625 170.76-115.38 63.859-26.746 132.3-40.512 201.43-40.512z" fill="#363753"/>
 <g clip-path="url(#a)">
  <path d="m259.93 605.15-24.047 6.8711v24.047l20.609 6.8711c10.305 34.352 6.8711 68.703 0 99.617l-20.609 10.305v24.047l405.34 195.8 261.07-212.97c44.656-34.352 75.57-154.58 3.4336-168.32-10.305-3.4336-41.223-10.305-96.184-20.609l68.703-30.914v-20.609l-24.047-6.8711c-10.305-27.48-10.305-54.961-10.305-82.441l133.97-27.48v-20.609l-17.176-3.4336c-13.742-30.914-13.742-79.008 0-109.92h17.176v-17.176l-233.59-24.047-419.08 24.047c-75.57 6.8711-99.617 116.79-17.176 154.58-27.48 0-44.656 3.4336-54.961 10.305-44.656 30.914-41.223 158.01 6.8711 188.93zm27.48-178.62 254.2 27.48c-24.047 58.395-20.609 127.1 0 185.49l-267.93-58.395c-48.09-10.305-37.785-161.45 13.742-154.58zm460.3-178.62 206.11 17.176c-13.742 37.785-13.742 82.441 0 120.23l-202.67 30.914c-96.184 13.742-109.92-178.62-3.4336-168.32zm-199.23 206.11 75.57-13.742c51.527 6.8711 89.312 13.742 109.92 10.305l103.05-20.609c-3.4336 34.352 0 61.832 10.305 92.746l-298.85 116.79c-20.609-58.395-24.047-127.1 0-185.49zm-288.55 302.29c10.305-37.785 13.742-72.137 3.4336-109.92l370.99 120.23c13.742 44.656 6.8711 106.49-3.4336 154.58zm381.29 164.88c10.305-48.09 17.176-109.92 0-154.58 34.352-20.609 233.59-151.14 254.2-151.14 44.656 0 27.48 96.184 0 113.36l-254.2 192.36z" fill="#b4692d"/>
 </g>
</svg>
