<?xml version="1.0" encoding="UTF-8"?>
<svg width="1200pt" height="1200pt" version="1.1" viewBox="0 0 1200 1200" xmlns="http://www.w3.org/2000/svg">
 <g>
  <path d="m600 0c-78.793 0-156.82 15.52-229.61 45.672s-138.94 74.348-194.65 130.07c-55.719 55.715-99.914 121.86-130.07 194.65s-45.672 150.82-45.672 229.61c0 159.13 63.215 311.74 175.74 424.26 112.52 112.52 265.13 175.73 424.27 175.73 159.13 0 311.74-63.215 424.26-175.74 112.52-112.52 175.74-265.13 175.74-424.26 0-159.13-63.215-311.74-175.73-424.27-112.52-112.52-265.13-175.74-424.26-175.74zm0 67.762c69.121 0 137.56 13.766 201.42 40.516 63.859 26.746 121.88 65.953 170.76 115.38s87.645 108.1 114.09 172.67c26.453 64.574 40.066 133.79 40.066 203.68 0 141.16-55.457 276.53-154.16 376.34-98.707 99.816-232.58 155.89-372.18 155.89-69.121 0-137.57-13.766-201.43-40.516-63.855-26.746-121.88-65.949-170.76-115.37-48.875-49.422-87.645-108.1-114.1-172.67-26.449-64.574-40.066-133.79-40.066-203.68 0-69.898 13.613-139.11 40.066-203.68 26.449-64.574 65.219-123.25 114.1-172.68 48.875-49.422 106.9-88.625 170.76-115.38 63.859-26.746 132.3-40.512 201.43-40.512z" fill="#363753"/>
  <path d="m271.27 600c0 4.5352 2.2656 8.3125 5.2891 10.578l77.84 55.168-40.055 86.906c-1.5117 3.7773-1.5117 8.3125 0.75391 12.09 2.2656 3.7773 6.0469 6.0469 10.578 6.8008l95.219 8.3125 8.3125 95.219c0.75391 4.5352 3.0234 8.3125 6.8008 10.578s8.3125 2.2656 12.09 0.75391l86.906-40.055 55.168 77.84c2.2656 3.7773 6.8008 5.2891 10.578 5.2891 4.5352 0 8.3125-2.2656 10.578-5.2891l55.168-77.84 86.906 40.055c3.7773 1.5117 8.3125 1.5117 12.09-0.75391 3.7773-2.2656 6.0469-6.0469 6.8008-10.578l8.3125-95.219 95.219-8.3125c4.5352-0.75391 8.3125-3.0234 10.578-6.8008 2.2656-3.7773 2.2656-8.3125 0.75391-12.09l-40.055-86.906 77.84-55.168c3.7773-2.2656 5.2891-6.8008 5.2891-10.578s-2.2656-8.3125-5.2891-10.578l-77.84-55.168 40.055-86.906c1.5117-3.7773 1.5117-8.3125-0.75391-12.09-2.2656-3.7773-6.0469-6.0469-10.578-6.8008l-95.219-8.3125-8.3125-95.219c-0.75391-4.5352-3.0234-8.3125-6.8008-10.578-3.7773-2.2656-8.3125-2.2656-12.09-0.75391l-86.906 40.055-55.91-77.094c-5.2891-6.8008-16.625-6.8008-21.16 0l-55.168 77.84-86.906-40.055c-3.7773-1.5117-8.3125-1.5117-12.09 0.75391-3.7773 2.2656-6.0469 6.0469-6.8008 10.578l-8.3125 95.219-95.219 8.3125c-4.5352 0.75391-8.3125 3.0234-10.578 6.8008s-2.2656 8.3125-0.75391 12.09l40.055 86.906-77.094 54.422c-3.7773 2.2656-5.2891 6.0469-5.2891 10.578zm356.7 145.86c-7.5586 7.5586-17.383 12.09-27.961 12.09s-20.402-4.5352-27.961-12.09c-7.5586-7.5586-11.336-18.137-11.336-29.473 0-10.578 4.5352-21.16 11.336-29.473 14.359-14.359 41.562-14.359 55.922 0 7.5586 7.5586 11.336 18.137 11.336 29.473-0.003906 11.336-3.7812 21.914-11.336 29.473zm-67.262-262.23c0-22.672 17.383-41.562 39.297-41.562s39.297 18.137 39.297 41.562v128.47c0 22.672-17.383 41.562-39.297 41.562s-39.297-18.137-39.297-41.562z" fill="#b4692d"/>
 </g>
</svg>
