<?xml version="1.0" encoding="UTF-8"?>
<svg width="1200pt" height="1200pt" version="1.1" viewBox="0 0 1200 1200" xmlns="http://www.w3.org/2000/svg">
 <g>
  <path d="m600 0c-78.793 0-156.82 15.52-229.61 45.672s-138.94 74.348-194.65 130.07c-55.719 55.715-99.914 121.86-130.07 194.65s-45.672 150.82-45.672 229.61c0 159.13 63.215 311.74 175.74 424.26 112.52 112.52 265.13 175.73 424.27 175.73 159.13 0 311.74-63.215 424.26-175.74 112.52-112.52 175.74-265.13 175.74-424.26 0-159.13-63.215-311.74-175.73-424.27-112.52-112.52-265.13-175.74-424.26-175.74zm0 67.762c69.121 0 137.56 13.766 201.42 40.516 63.859 26.746 121.88 65.953 170.76 115.38s87.645 108.1 114.09 172.67c26.453 64.574 40.066 133.79 40.066 203.68 0 141.16-55.457 276.53-154.16 376.34-98.707 99.816-232.58 155.89-372.18 155.89-69.121 0-137.57-13.766-201.43-40.516-63.855-26.746-121.88-65.949-170.76-115.37-48.875-49.422-87.645-108.1-114.1-172.67-26.449-64.574-40.066-133.79-40.066-203.68 0-69.898 13.613-139.11 40.066-203.68 26.449-64.574 65.219-123.25 114.1-172.68 48.875-49.422 106.9-88.625 170.76-115.38 63.859-26.746 132.3-40.512 201.43-40.512z" fill="#363753"/>
  <path d="m650.19 704.95c5.7578-1.1797 11.66-2.5078 17.418-4.1328v58.746c0 3.1016-2.8047 5.7578-6.0508 5.7578l-58.602-0.003906c-5.6094 0-10.48 3.543-12.25 8.8555-1.918 6.0508-4.5742 12.25-7.8242 18.895-2.3633 4.8711-1.4766 10.922 2.5078 14.762l41.328 41.328c1.1797 1.1797 1.7695 2.8047 1.7695 4.2812 0 1.1797-0.29688 2.6562-1.7695 4.1328l-46.492 46.492c-1.4766 1.4766-3.1016 1.625-4.1328 1.625-0.73828 0.44141-2.6562-0.14844-4.1328-1.7695l-41.477-41.477c-3.9844-3.9844-10.035-4.8711-14.906-2.3633-6.1992 3.1016-12.25 5.6094-18.598 7.6758-5.1641 1.7695-8.8555 6.6406-8.8555 12.25v58.598c0 3.3945-2.8047 6.0508-6.0508 6.0508h-65.535c-3.2461 0-5.9023-2.6562-5.9023-6.0508v-58.598c0-5.6094-3.543-10.48-8.8555-12.25-6.4961-2.2148-12.695-4.7227-18.449-7.6758-1.7695-1.0312-3.8359-1.4766-5.7578-1.4766-3.3945 0-6.6406 1.3281-9.0039 3.8359l-41.773 41.625c-2.3633 2.3633-6.1992 2.3633-8.4141 0l-46.348-46.348c-2.3633-2.3633-2.3633-6.1992 0-8.4141l41.477-41.328c3.9844-3.9844 4.8711-9.8906 2.3633-14.906-2.9531-5.7578-5.6094-12.102-7.8242-18.895-1.7695-5.1641-6.6406-8.707-12.102-8.707h-58.598c-3.3945 0-5.9023-2.5078-5.9023-5.7578v-65.684c0-3.3945 2.6562-6.0508 5.9023-6.0508h58.598c5.4609 0 10.332-3.543 12.102-8.707 2.3633-6.9375 5.0195-13.285 7.8242-18.895 2.5078-5.0195 1.625-10.922-2.3633-14.906l-41.477-41.328c-2.3633-2.3633-2.3633-6.0508 0-8.4141l46.348-46.348c2.5078-2.3633 6.1992-2.3633 8.4141-0.14844l41.328 41.477c3.9844 3.9844 9.8906 4.8711 14.906 2.3633 0.88672-0.44141 1.7695-0.88672 2.6562-1.3281 1.625 2.5078 3.2461 4.8711 4.7227 7.0859 4.4297 6.4961 9.0039 12.84 14.168 18.895 1.918 2.3633 3.8359 4.7227 6.0508 7.0859 2.5078 2.9531 5.0195 5.7578 7.6758 8.4141 5.9023 6.1992 12.102 12.102 18.598 17.711 1.3281 1.1797 2.8047 2.3633 4.1328 3.543-36.457 3.9844-64.355 34.832-64.355 72.027 0 40 32.621 72.621 72.621 72.621s72.473-32.473 72.473-72.621c0-10.48-2.3633-20.664-6.6406-30.109 1.7695 0.58984 3.3945 1.1797 5.0195 1.7695 8.1172 2.6562 16.383 4.7227 24.797 6.4961 3.3945 0.73828 6.9375 1.4766 10.48 1.918 1.4766 0.29688 2.9531 0.44141 4.5742 0.73828 3.543 0.44141 7.2344 1.0312 11.07 1.3281 3.8359 0.44141 7.8242 0.73828 11.66 0.88672 0.73828 0.14844 1.4766 0.14844 2.3633 0.14844 4.1328 0.29688 8.2656 0.29688 12.398 0.29688 2.9531 0 5.7578-0.14844 8.8555-0.14844 2.5078-0.14844 4.8711-0.14844 7.2344-0.29687 2.0664-0.14844 4.1328-0.29688 6.1992-0.44141 2.5078-0.29688 5.1641-0.44141 7.6758-0.73828 1.0312-0.14844 2.0664-0.29688 2.9531-0.29688 3.1016-0.44141 6.1992-0.88672 9.2969-1.3281 3.6875-0.59375 6.9375-1.1836 10.48-1.7734zm23.613-32.914c-47.969 15.793-99.629 16.383-145.54 1.625-0.14844 0-0.14844 0-0.14844-0.14844-5.4609-1.625-10.773-3.543-16.383-5.9023-20.961-8.8555-40.441-20.961-58.156-36.164-15.793-13.578-29.961-29.52-42.066-47.23-2.3633-3.3945-4.7227-7.0859-7.0859-11.07-0.88672-1.3281-1.625-2.8047-2.5078-4.1328-0.14844-0.29687-0.44141-0.73828-0.58984-1.0312-0.14844-0.14844-0.14844-0.29687-0.29688-0.44141-23.32-41.031-34.391-87.969-30.699-132.25 7.9688-96.973 82.508-183.61 177.12-206.05 2.5078-0.58984 5.1641-1.1797 8.2656-1.7695 13.727-2.6562 27.453-3.9844 41.328-3.9844 80.441 0 160.88 43.246 201.92 112.03 49.594 82.953 39.852 196.31-23.027 269.37-26.121 30.844-61.547 54.016-102.14 67.152zm78.379-71.734c69.078-71.438 78.227-182.73 21.992-264.8-65.535-95.645-196.61-120.14-292.25-54.461-59.336 40.738-91.219 106.71-91.219 173.58 0 41.031 11.957 82.508 36.898 118.82 6.1992 9.0039 12.988 17.418 20.223 25.238 0.14844 0.14844 0.29688 0.29688 0.29688 0.44141 17.562 18.449 37.934 33.504 60.812 44.43 0.14844 0.14844 0.29688 0.14844 0.44141 0.29688 18.895 9.1523 39.113 15.352 60.223 18.598 10.332 1.4766 20.664 2.3633 30.996 2.3633 9.4453 0 18.746-0.58984 28.043-1.918 0.58984 0 1.1797-0.14844 1.7695-0.14844h0.14844c0.14844 0 0.14844 0 0.29687-0.14844 21.105-2.9531 41.477-9.0039 60.516-18.301h0.14844c0.14844-0.14844 0.29688-0.14844 0.44141-0.29688 9.7422-4.5742 19.039-9.8906 28.043-16.09 12.102-8.4141 22.879-17.418 32.176-27.305zm0.88281-250.33c-27.895-40.59-69.961-68.043-118.38-76.898-48.414-9.0039-97.562 1.3281-138.3 29.227-81.918 56.234-104.21 167.23-51.66 250.62v-146.71c0-7.0859 5.7578-12.84 12.84-12.84h44.281v-29.227c0-7.0859 5.7578-12.84 12.84-12.84h56.973c7.0859 0 12.84 5.7578 12.84 12.84v64.5h44.281c7.0859 0 12.84 5.7578 12.84 12.84v41.625h44.133c7.0859 0 12.84 5.7578 12.84 12.84v32.621h44.281c7.0859 0 12.84 5.7578 12.84 12.84v13.285c39.855-61.254 40.004-142.58-2.6523-204.72zm-54.316 260.96c2.2148-1.4766 4.4297-2.9531 6.6406-4.4297 9.0039-6.1992 17.418-13.137 24.797-20.367v-31.883h-31.438zm-57.121 23.465c10.773-2.3633 21.254-5.7578 31.293-10.035v-115.57h-31.293zm-57.121 3.8398c10.48 0.88672 20.961 0.88672 31.438 0.14844v-184.06h-31.438zm-114.09-53.285c9.4453 9.5938 20.074 18.008 31.438 25.238v-191.29h-31.438zm57.121 38.82c10.035 4.4297 20.516 7.8242 31.293 10.332l-0.003907-257.12h-31.293zm435.86 286.2-112.18-163.69-11.957-17.562c-0.14844-0.29688-0.44141-0.44141-0.58984-0.73828l-17.859-25.977c-4.5742-6.6406-11.367-11.07-19.336-12.547-1.918-0.29688-3.8359-0.44141-5.7578-0.44141l-27.453-40.148c-6.4961 5.6094-13.43 10.629-20.664 15.496 0.29688 0.29688 24.059 34.98 24.059 34.98l-8.2656 5.6094c-0.44141 0.29688-0.73828 0.58984-1.1797 0.88672l-4.4297 2.9531s-24.059-35.129-24.355-35.57c-7.3789 4.2812-15.055 8.4141-22.879 11.957l29.078 42.359c-3.543 9.0039-2.8047 19.484 3.1016 28.043l17.859 26.125c0.14844 0.29688 0.29688 0.44141 0.44141 0.73828l12.102 17.418 112.18 163.69c4.5742 6.6406 11.367 11.07 19.336 12.547 1.918 0.29688 3.6914 0.44141 5.4609 0.44141 6.0508 0 11.809-1.7695 16.828-5.3125l28.488-19.633c6.6406-4.4297 11.07-11.219 12.547-19.039 1.625-8.1211 0-15.941-4.5742-22.586z" fill="#b4692d"/>
 </g>
</svg>
