<?xml version="1.0" encoding="UTF-8"?>
<svg width="1200pt" height="1200pt" version="1.1" viewBox="0 0 1200 1200" xmlns="http://www.w3.org/2000/svg">
 <g>
  <path d="m600 0c-78.793 0-156.82 15.52-229.61 45.672s-138.94 74.348-194.65 130.07c-55.719 55.715-99.914 121.86-130.07 194.65s-45.672 150.82-45.672 229.61c0 159.13 63.215 311.74 175.74 424.26 112.52 112.52 265.13 175.73 424.27 175.73 159.13 0 311.74-63.215 424.26-175.74 112.52-112.52 175.74-265.13 175.74-424.26 0-159.13-63.215-311.74-175.73-424.27-112.52-112.52-265.13-175.74-424.26-175.74zm0 67.762c69.121 0 137.56 13.766 201.42 40.516 63.859 26.746 121.88 65.953 170.76 115.38s87.645 108.1 114.09 172.67c26.453 64.574 40.066 133.79 40.066 203.68 0 141.16-55.457 276.53-154.16 376.34-98.707 99.816-232.58 155.89-372.18 155.89-69.121 0-137.57-13.766-201.43-40.516-63.855-26.746-121.88-65.949-170.76-115.37-48.875-49.422-87.645-108.1-114.1-172.67-26.449-64.574-40.066-133.79-40.066-203.68 0-69.898 13.613-139.11 40.066-203.68 26.449-64.574 65.219-123.25 114.1-172.68 48.875-49.422 106.9-88.625 170.76-115.38 63.859-26.746 132.3-40.512 201.43-40.512z" fill="#363753"/>
  <path d="m260.45 795.66c-1.1836 3.5625-0.25391 7.4883 2.4023 10.145s6.582 3.5859 10.145 2.4023l142.25-47.211c47.105 21.145 98.195 31.961 149.83 31.727 168.53 0 305.15-110.15 305.15-246.04 0-135.88-136.62-246.04-305.15-246.04-168.53 0-305.15 110.15-305.15 246.04 0.32422 44.859 15 88.441 41.883 124.36zm430.54-286.28c9.8945 0 19.383 3.9297 26.379 10.93 6.9961 6.9961 10.93 16.484 10.93 26.379 0 9.8945-3.9336 19.383-10.93 26.383-6.9961 6.9961-16.484 10.926-26.383 10.926-9.8945 0-19.383-3.9297-26.379-10.93-6.9961-6.9961-10.926-16.484-10.926-26.379 0-9.8945 3.9297-19.387 10.926-26.383 6.9961-6.9961 16.488-10.926 26.383-10.926zm-125.92 0c9.8945 0 19.383 3.9297 26.383 10.926 6.9961 7 10.926 16.488 10.926 26.383 0 9.8945-3.9297 19.383-10.926 26.383-7 6.9961-16.488 10.926-26.383 10.926s-19.383-3.9297-26.383-10.93c-6.9961-6.9961-10.926-16.484-10.926-26.379 0-9.8945 3.9297-19.387 10.926-26.383 7-6.9961 16.488-10.926 26.383-10.926zm-125.92 0c9.8945 0 19.387 3.9297 26.383 10.926 6.9961 6.9961 10.926 16.488 10.926 26.383 0 9.8945-3.9297 19.383-10.926 26.379-6.9961 7-16.484 10.93-26.383 10.93-9.8945 0-19.383-3.9297-26.379-10.93-6.9961-6.9961-10.93-16.484-10.93-26.379 0.003907-9.8945 3.9336-19.383 10.93-26.383 6.9961-6.9961 16.484-10.926 26.379-10.926zm459.36 66.812c26.445 30.848 41.16 70.035 41.559 110.66-0.26172 36.383-12.164 71.723-33.965 100.85l33.539 101.05c0.96094 2.8906 0.20703 6.0742-1.9492 8.2305-2.1523 2.1523-5.3359 2.9062-8.2266 1.9453l-115.35-38.285c-38.203 17.148-79.633 25.922-121.51 25.727-73.961 0-140.3-26.195-185.64-67.664 19.242 2.8047 38.664 4.2188 58.109 4.2383 172.82 0 315.5-108.25 333.43-246.76z" fill="#b4692d"/>
 </g>
</svg>
