<?xml version="1.0" encoding="UTF-8"?>
<svg width="1200pt" height="1200pt" version="1.1" viewBox="0 0 1200 1200" xmlns="http://www.w3.org/2000/svg">
 <g>
  <path d="m600 0c-78.793 0-156.82 15.52-229.61 45.672s-138.94 74.348-194.65 130.07c-55.719 55.715-99.914 121.86-130.07 194.65s-45.672 150.82-45.672 229.61c0 159.13 63.215 311.74 175.74 424.26 112.52 112.52 265.13 175.73 424.27 175.73 159.13 0 311.74-63.215 424.26-175.74 112.52-112.52 175.74-265.13 175.74-424.26 0-159.13-63.215-311.74-175.73-424.27-112.52-112.52-265.13-175.74-424.26-175.74zm0 67.762c69.121 0 137.56 13.766 201.42 40.516 63.859 26.746 121.88 65.953 170.76 115.38s87.645 108.1 114.09 172.67c26.453 64.574 40.066 133.79 40.066 203.68 0 141.16-55.457 276.53-154.16 376.34-98.707 99.816-232.58 155.89-372.18 155.89-69.121 0-137.57-13.766-201.43-40.516-63.855-26.746-121.88-65.949-170.76-115.37-48.875-49.422-87.645-108.1-114.1-172.67-26.449-64.574-40.066-133.79-40.066-203.68 0-69.898 13.613-139.11 40.066-203.68 26.449-64.574 65.219-123.25 114.1-172.68 48.875-49.422 106.9-88.625 170.76-115.38 63.859-26.746 132.3-40.512 201.43-40.512z" fill="#363753"/>
  <path d="m491.18 792.71c0-51.387 35.52-93.707 82.371-105.8v-61.211h-109.58v-25.695c0-30.984-25.695-56.68-56.68-56.68-31.738 0-56.68 25.695-56.68 56.68v25.695h-109.57v333.27h333.27v-61.211c-47.609-11.336-83.129-54.414-83.129-105.05z" fill="#b4692d"/>
  <path d="m792.71 708.82c-50.633 0-93.707-35.52-105.04-82.371h-61.211v109.58h-26.453c-30.984 0-56.68 25.695-56.68 56.68 0 30.984 25.695 56.68 56.68 56.68h25.695v109.58h333.27v-333.27h-61.211c-11.336 47.609-54.414 83.129-105.05 83.129z" fill="#b4692d"/>
  <path d="m625.7 241.04v61.211c47.609 12.09 82.371 54.41 82.371 105.8 0 51.387-35.52 93.707-82.371 105.8v61.211h109.58v24.938c0 31.738 25.695 56.68 56.68 56.68 31.738 0 56.68-25.695 56.68-56.68v-25.695h109.58v-332.52l-332.52 0.003907z" fill="#b4692d"/>
  <path d="m407.29 491.18c50.633 0 93.707 34.762 105.04 82.371h61.211l0.003906-109.58h26.449c30.984 0 56.68-25.695 56.68-56.68s-25.695-56.676-56.68-56.676h-25.695l0.003906-109.58h-333.27v332.52h61.211c11.336-46.855 54.41-82.375 105.04-82.375z" fill="#b4692d"/>
 </g>
</svg>
