<?xml version="1.0" encoding="UTF-8"?>
<svg width="1200pt" height="1200pt" version="1.1" viewBox="0 0 1200 1200" xmlns="http://www.w3.org/2000/svg">
 <g>
  <path d="m600 0c-78.793 0-156.82 15.52-229.61 45.672s-138.94 74.348-194.65 130.07c-55.719 55.715-99.914 121.86-130.07 194.65s-45.672 150.82-45.672 229.61c0 159.13 63.215 311.74 175.74 424.26 112.52 112.52 265.13 175.73 424.27 175.73 159.13 0 311.74-63.215 424.26-175.74 112.52-112.52 175.74-265.13 175.74-424.26 0-159.13-63.215-311.74-175.73-424.27-112.52-112.52-265.13-175.74-424.26-175.74zm0 67.762c69.121 0 137.56 13.766 201.42 40.516 63.859 26.746 121.88 65.953 170.76 115.38s87.645 108.1 114.09 172.67c26.453 64.574 40.066 133.79 40.066 203.68 0 141.16-55.457 276.53-154.16 376.34-98.707 99.816-232.58 155.89-372.18 155.89-69.121 0-137.57-13.766-201.43-40.516-63.855-26.746-121.88-65.949-170.76-115.37-48.875-49.422-87.645-108.1-114.1-172.67-26.449-64.574-40.066-133.79-40.066-203.68 0-69.898 13.613-139.11 40.066-203.68 26.449-64.574 65.219-123.25 114.1-172.68 48.875-49.422 106.9-88.625 170.76-115.38 63.859-26.746 132.3-40.512 201.43-40.512z" fill="#363753"/>
  <path d="m473.84 400.93 30.938-30.93c9.25 5.9297 20.016 9.1523 31.285 9.1523 15.406 0 30.082-5.9609 40.98-17.004 11.047-10.898 17.148-25.578 17.148-41.129 0-15.406-6.1055-30.082-17.148-40.984-10.898-11.047-25.578-17.148-40.98-17.148-15.551 0-30.23 6.1055-41.129 17.148-18.574 18.574-21.672 46.512-9.8047 68.508l-31.84 31.836-132.17-132.17-10.316 10.32c-38.367 38.367-59.586 89.523-59.586 143.88 0 53.695 20.781 104.08 58.27 142.42h-14.672c-23.98 0-43.598 19.621-43.598 43.598v72.664h116.27v-75.043c26.93 12.82 56.48 19.816 87.199 19.816 54.352 0 105.51-21.219 143.88-59.586l10.316-10.32z" fill="#b4692d"/>
  <path d="m919.73 632.02h-290.66c-15.984 0-29.066 13.078-29.066 29.066v145.33h348.79v-145.33c0-15.984-12.934-29.066-29.066-29.066z" fill="#b4692d"/>
  <path d="m600 864.55c0 16.133 13.078 29.066 29.066 29.066h72.664v29.121h-29.004v29.066h203.46v-29.066h-29.125v-29.121h72.664c16.133 0 29.066-12.934 29.066-29.066v-29.066h-348.79z" fill="#b4692d"/>
  <path d="m660.66 334.49c0.78906 1.2461 1.6602 2.375 2.7773 3.3281 0.23047 0.19531 0.32812 0.50391 0.57031 0.68359l58.133 43.598c2.6172 1.9648 5.6758 2.9102 8.707 2.9102 4.4219 0 8.7852-2.0078 11.637-5.8125 4.8164-6.4219 3.5195-15.535-2.9023-20.344l-23.258-17.441h145.33c8.0117 0 14.531 6.5195 14.531 14.531v203.46c0 8.0273 6.5078 14.531 14.531 14.531 8.0273 0 14.531-6.5078 14.531-14.531v-203.46c0-24.043-19.559-43.598-43.598-43.598h-145.32l23.258-17.441c6.4219-4.8125 7.7188-13.922 2.9023-20.344-4.7969-6.4141-13.895-7.7344-20.344-2.9023l-58.133 43.598c-0.24609 0.18359-0.33984 0.48828-0.57031 0.68359-1.1211 0.95312-1.9883 2.082-2.7773 3.3281-0.33203 0.52734-0.76172 0.95312-1.0234 1.5195-0.87109 1.8672-1.4375 3.8984-1.4375 6.0938 0 2.1953 0.5625 4.2266 1.4375 6.0938 0.25391 0.5625 0.6875 0.98828 1.0195 1.5156z" fill="#b4692d"/>
  <path d="m539.47 842.46c-0.78906-1.2461-1.6602-2.375-2.7773-3.3281-0.23047-0.19531-0.32812-0.50391-0.57031-0.68359l-58.133-43.598c-6.4297-4.8242-15.527-3.5039-20.344 2.9023-4.8164 6.4219-3.5195 15.535 2.9023 20.344l23.258 17.441h-145.34c-8.0117 0-14.531-6.5195-14.531-14.531v-87.199c0-8.0273-6.5078-14.531-14.531-14.531-8.0273 0-14.531 6.5078-14.531 14.531v87.199c0 24.043 19.559 43.598 43.598 43.598h145.33l-23.258 17.441c-6.4219 4.8125-7.7188 13.922-2.9023 20.344 2.8516 3.8047 7.2188 5.8125 11.637 5.8125 3.0312 0 6.0898-0.94531 8.707-2.9102l58.133-43.598c0.24609-0.18359 0.33984-0.48828 0.57031-0.68359 1.1211-0.95312 1.9883-2.082 2.7773-3.3281 0.33203-0.52734 0.76172-0.95313 1.0234-1.5195 0.87109-1.8672 1.4375-3.8984 1.4375-6.0938 0-2.1953-0.5625-4.2266-1.4375-6.0938-0.25781-0.5625-0.6875-0.98828-1.0234-1.5156z" fill="#b4692d"/>
 </g>
</svg>
