<?xml version="1.0" encoding="UTF-8"?>
<svg width="1200pt" height="1200pt" version="1.1" viewBox="0 0 1200 1200" xmlns="http://www.w3.org/2000/svg">
 <g>
  <path d="m600 0c-78.793 0-156.82 15.52-229.61 45.672s-138.94 74.348-194.65 130.07c-55.719 55.715-99.914 121.86-130.07 194.65s-45.672 150.82-45.672 229.61c0 159.13 63.215 311.74 175.74 424.26 112.52 112.52 265.13 175.73 424.27 175.73 159.13 0 311.74-63.215 424.26-175.74 112.52-112.52 175.74-265.13 175.74-424.26 0-159.13-63.215-311.74-175.73-424.27-112.52-112.52-265.13-175.74-424.26-175.74zm0 67.762c69.121 0 137.56 13.766 201.42 40.516 63.859 26.746 121.88 65.953 170.76 115.38s87.645 108.1 114.09 172.67c26.453 64.574 40.066 133.79 40.066 203.68 0 141.16-55.457 276.53-154.16 376.34-98.707 99.816-232.58 155.89-372.18 155.89-69.121 0-137.57-13.766-201.43-40.516-63.855-26.746-121.88-65.949-170.76-115.37-48.875-49.422-87.645-108.1-114.1-172.67-26.449-64.574-40.066-133.79-40.066-203.68 0-69.898 13.613-139.11 40.066-203.68 26.449-64.574 65.219-123.25 114.1-172.68 48.875-49.422 106.9-88.625 170.76-115.38 63.859-26.746 132.3-40.512 201.43-40.512z" fill="#363753"/>
  <path d="m745.86 590.18c6.0469 0 11.336-5.2891 11.336-11.336v-43.074c0-6.0469-5.2891-11.336-11.336-11.336s-11.336 5.2891-11.336 11.336v43.074c0 6.8047 4.5352 11.336 11.336 11.336z" fill="#b4692d"/>
  <path d="m784.39 523.68v43.074c0 6.0469 5.2891 11.336 11.336 11.336s11.336-5.2891 11.336-11.336v-43.074c0-6.0469-5.2891-11.336-11.336-11.336-6.043 0-11.336 5.2891-11.336 11.336z" fill="#b4692d"/>
  <path d="m846.36 524.43c-6.0469 0-11.336 5.2891-11.336 11.336v43.074c0 6.0469 5.2891 11.336 11.336 11.336s11.336-5.2891 11.336-11.336v-43.074c0-6.0469-5.2891-11.336-11.336-11.336z" fill="#b4692d"/>
  <path d="m819.91 824.45-12.848 12.848v-77.082c0-6.0469-5.2891-11.336-11.336-11.336s-11.336 5.2891-11.336 11.336v77.082l-12.848-12.848c-4.5352-4.5352-12.09-4.5352-16.625 0-4.5352 4.5352-4.5352 12.09 0 16.625l32.496 32.496c2.2656 2.2656 5.2891 3.0234 8.3125 3.0234 3.0234 0 6.0469-0.75391 8.3125-3.0234l32.496-32.496c4.5352-4.5352 4.5352-12.09 0-16.625-4.5312-4.5352-12.09-4.5352-16.625 0z" fill="#b4692d"/>
  <path d="m855.43 664.24c0 32.973-26.73 59.699-59.703 59.699-32.973 0-59.699-26.727-59.699-59.699 0-32.973 26.727-59.703 59.699-59.703 32.973 0 59.703 26.73 59.703 59.703" fill="#b4692d"/>
  <path d="m627.96 484.38h173.81c18.895 0 34.762-15.871 34.762-34.762 0-18.895-15.871-34.762-34.762-34.762l-256.19-0.003907c-133.76 0-194.97 89.176-198 92.953-8.3125 12.09-7.5586 27.961 0.75391 39.297l60.457 84.641c6.8008 9.8242 17.383 14.359 27.961 14.359 6.8008 0 14.359-2.2656 20.402-6.8008 1.5117-1.5117 3.7773-3.0234 5.2891-4.5352v24.184l-21.156 258.45c-1.5117 21.16 13.602 40.055 35.52 41.562 21.16 1.5117 40.055-13.602 41.562-35.52l20.402-247.12h15.113l20.402 247.12c1.5117 20.402 18.137 35.52 38.543 35.52h3.0234c21.16-1.5117 37.031-20.402 35.52-41.562l-21.16-256.94zm-164.75 104.29-41.562-58.945c9.8242-9.0703 23.426-18.895 42.32-27.961z" fill="#b4692d"/>
  <path d="m622.67 318.12c0 42.57-34.512 77.082-77.082 77.082-42.57 0-77.082-34.512-77.082-77.082 0-42.574 34.512-77.082 77.082-77.082 42.57 0 77.082 34.508 77.082 77.082" fill="#b4692d"/>
 </g>
</svg>
