<?xml version="1.0" encoding="UTF-8"?>
<svg width="1200pt" height="1200pt" version="1.1" viewBox="0 0 1200 1200" xmlns="http://www.w3.org/2000/svg">
 <g>
  <path d="m600 0c-78.793 0-156.82 15.52-229.61 45.672s-138.94 74.348-194.65 130.07c-55.719 55.715-99.914 121.86-130.07 194.65s-45.672 150.82-45.672 229.61c0 159.13 63.215 311.74 175.74 424.26 112.52 112.52 265.13 175.73 424.27 175.73 159.13 0 311.74-63.215 424.26-175.74 112.52-112.52 175.74-265.13 175.74-424.26 0-159.13-63.215-311.74-175.73-424.27-112.52-112.52-265.13-175.74-424.26-175.74zm0 67.762c69.121 0 137.56 13.766 201.42 40.516 63.859 26.746 121.88 65.953 170.76 115.38s87.645 108.1 114.09 172.67c26.453 64.574 40.066 133.79 40.066 203.68 0 141.16-55.457 276.53-154.16 376.34-98.707 99.816-232.58 155.89-372.18 155.89-69.121 0-137.57-13.766-201.43-40.516-63.855-26.746-121.88-65.949-170.76-115.37-48.875-49.422-87.645-108.1-114.1-172.67-26.449-64.574-40.066-133.79-40.066-203.68 0-69.898 13.613-139.11 40.066-203.68 26.449-64.574 65.219-123.25 114.1-172.68 48.875-49.422 106.9-88.625 170.76-115.38 63.859-26.746 132.3-40.512 201.43-40.512z" fill="#363753"/>
  <path d="m841.07 722.43c-27.207 0-51.387 9.0703-71.793 24.184l-61.969-61.969c18.137-23.426 29.473-52.898 29.473-84.641 0-31.738-11.336-61.211-29.473-84.641l61.969-61.969c19.648 15.113 44.586 24.184 71.793 24.184 64.992 0 117.89-52.898 117.89-117.89 0-64.992-52.898-117.89-117.89-117.89-64.992 0-117.89 52.898-117.89 117.89 0 27.207 9.0703 51.387 24.184 71.793l-61.969 61.969c-23.426-18.137-52.898-29.473-84.641-29.473-31.738 0-61.211 11.336-84.641 29.473l-61.969-61.969c15.113-19.648 24.184-44.586 24.184-71.793 0-64.992-52.898-117.89-117.89-117.89-64.992 0-119.4 52.145-119.4 117.14 0 64.992 52.898 117.89 117.89 117.89 27.207 0 51.387-9.0703 71.793-24.184l61.969 61.969c-18.137 23.426-29.473 52.898-29.473 84.641 0 31.738 11.336 61.211 29.473 84.641l-61.969 61.969c-19.648-15.113-44.586-24.184-71.793-24.184-64.992 0-117.89 52.898-117.89 117.89s52.898 117.89 117.89 117.89c64.992 0 117.89-52.898 117.89-117.89 0-27.207-9.0703-51.387-24.184-71.793l61.969-61.969c23.426 18.137 52.898 29.473 84.641 29.473 31.738 0 61.211-11.336 84.641-29.473l61.969 61.969c-15.113 19.648-24.184 44.586-24.184 71.793 0 64.992 52.898 117.89 117.89 117.89s117.89-52.898 117.89-117.89-51.387-117.14-116.38-117.14zm0-434.54c20.402 0 37.785 16.625 37.785 37.785 0 20.402-16.625 37.785-37.785 37.785-20.402 0-37.785-16.625-37.785-37.785 0-21.16 16.625-37.785 37.785-37.785zm-62.723 126.21c0-18.895 12.09-34.762 28.719-40.809 9.0703 6.8008 21.16 10.578 33.25 10.578 12.09 0 23.426-3.7773 33.25-10.578 16.625 6.0469 28.719 21.914 28.719 40.809v5.2891c-15.871 15.871-37.785 26.449-61.969 26.449-24.184 0-46.098-9.8242-61.969-26.449zm-381.64-88.422c0 20.402-16.625 37.785-37.785 37.785-20.402 0-37.785-16.625-37.785-37.785 0-20.402 16.625-37.785 37.785-37.785 21.16 0 37.785 16.625 37.785 37.785zm-99.754 88.422c0-18.895 12.09-34.762 28.719-40.809 9.0703 6.8008 21.16 10.578 33.25 10.578 12.09 0 23.426-3.7773 33.25-10.578 16.625 6.0469 28.719 21.914 28.719 40.809v5.2891c-15.871 15.871-37.785 26.449-61.969 26.449-24.184 0-46.098-9.8242-61.969-26.449zm99.754 392.97c0 20.402-16.625 37.785-37.785 37.785-20.402 0-37.785-16.625-37.785-37.785 0-20.402 16.625-37.785 37.785-37.785 21.16 0 37.785 17.383 37.785 37.785zm-37.785 120.16c-24.184 0-46.098-9.8242-61.969-26.449v-5.2891c0-18.895 12.09-34.762 28.719-40.809 9.0703 6.8008 21.16 10.578 33.25 10.578 12.09 0 23.426-3.7773 33.25-10.578 16.625 6.0469 28.719 21.914 28.719 40.809v5.2891c-15.117 16.625-37.031 26.449-61.969 26.449zm167.77-303.8c-12.848 0-23.426-10.578-23.426-23.426s10.578-23.426 23.426-23.426c12.848 0 23.426 10.578 23.426 23.426-0.75781 12.844-10.582 23.426-23.426 23.426zm73.301 0c-12.848 0-23.426-10.578-23.426-23.426s10.578-23.426 23.426-23.426 23.426 10.578 23.426 23.426c0.003907 12.844-10.578 23.426-23.426 23.426zm73.305 0c-12.848 0-23.426-10.578-23.426-23.426s10.578-23.426 23.426-23.426c12.848 0 23.426 10.578 23.426 23.426 0.003906 12.844-10.578 23.426-23.426 23.426zm167.77 145.85c20.402 0 37.785 16.625 37.785 37.785 0 20.402-16.625 37.785-37.785 37.785-20.402 0-37.785-16.625-37.785-37.785 0-20.402 16.625-37.785 37.785-37.785zm0 157.95c-24.184 0-46.098-9.8242-61.969-26.449v-5.2891c0-18.895 12.09-34.762 28.719-40.809 9.0703 6.8008 21.16 10.578 33.25 10.578 12.09 0 23.426-3.7773 33.25-10.578 16.625 6.0469 28.719 21.914 28.719 40.809v5.2891c-15.871 16.625-37.785 26.449-61.969 26.449z" fill="#b4692d"/>
  <path d="m528.96 377.82c10.578 0 18.895-8.3125 18.895-18.895 0-10.578-8.3125-18.895-18.895-18.895-10.578 0-18.895 8.3125-18.895 18.895 0.75781 10.582 9.0703 18.895 18.895 18.895z" fill="#b4692d"/>
  <path d="m671.04 377.82c10.578 0 18.895-8.3125 18.895-18.895 0-10.578-8.3125-18.895-18.895-18.895-10.578 0-18.895 8.3125-18.895 18.895s8.3125 18.895 18.895 18.895z" fill="#b4692d"/>
  <path d="m618.89 358.93c0 10.434-8.457 18.891-18.895 18.891-10.434 0-18.891-8.457-18.891-18.891 0-10.434 8.457-18.895 18.891-18.895 10.438 0 18.895 8.4609 18.895 18.895" fill="#b4692d"/>
  <path d="m528.96 822.18c-10.578 0-18.895 8.3125-18.895 18.895 0 10.578 8.3125 18.895 18.895 18.895 10.578 0 18.895-8.3125 18.895-18.895-0.003906-10.582-8.3164-18.895-18.895-18.895z" fill="#b4692d"/>
  <path d="m671.04 822.18c-10.578 0-18.895 8.3125-18.895 18.895 0 10.578 8.3125 18.895 18.895 18.895 10.578 0 18.895-8.3125 18.895-18.895-0.75781-10.582-9.0703-18.895-18.895-18.895z" fill="#b4692d"/>
  <path d="m618.89 841.07c0 10.434-8.457 18.895-18.895 18.895-10.434 0-18.891-8.4609-18.891-18.895 0-10.434 8.457-18.891 18.891-18.891 10.438 0 18.895 8.457 18.895 18.891" fill="#b4692d"/>
  <path d="m841.07 510.83c-10.578 0-18.895 8.3125-18.895 18.895 0 10.578 8.3125 18.895 18.895 18.895 10.578 0 18.895-8.3125 18.895-18.895-0.75781-10.582-9.0703-18.895-18.895-18.895z" fill="#b4692d"/>
  <path d="m859.97 671.04c0 10.434-8.4609 18.895-18.895 18.895-10.434 0-18.891-8.4609-18.891-18.895 0-10.434 8.457-18.895 18.891-18.895 10.434 0 18.895 8.4609 18.895 18.895" fill="#b4692d"/>
  <path d="m859.97 600c0 10.438-8.4609 18.895-18.895 18.895-10.434 0-18.891-8.457-18.891-18.895 0-10.434 8.457-18.891 18.891-18.891 10.434 0 18.895 8.457 18.895 18.891" fill="#b4692d"/>
  <path d="m358.93 547.86c10.578 0 18.895-8.3125 18.895-18.895 0-10.578-8.3125-18.895-18.895-18.895-10.578 0-18.895 8.3125-18.895 18.895 0.75781 10.582 9.0703 18.895 18.895 18.895z" fill="#b4692d"/>
  <path d="m377.82 671.04c0 10.434-8.457 18.895-18.891 18.895-10.434 0-18.895-8.4609-18.895-18.895 0-10.434 8.4609-18.895 18.895-18.895 10.434 0 18.891 8.4609 18.891 18.895" fill="#b4692d"/>
  <path d="m377.82 600c0 10.438-8.457 18.895-18.891 18.895-10.434 0-18.895-8.457-18.895-18.895 0-10.434 8.4609-18.891 18.895-18.891 10.434 0 18.891 8.457 18.891 18.891" fill="#b4692d"/>
 </g>
</svg>
